<?xml version="1.0" standalone="no"?>
<!DOCTYPE svg PUBLIC "-//W3C//DTD SVG 20010904//EN"
 "http://www.w3.org/TR/2001/REC-SVG-20010904/DTD/svg10.dtd">
<svg version="1.0" xmlns="http://www.w3.org/2000/svg"
 width="1274.000000pt" height="1280.000000pt" viewBox="0 0 1274.000000 1280.000000"
 preserveAspectRatio="xMidYMid meet">
<metadata>
Created by potrace 1.15, written by Peter Selinger 2001-2017
</metadata>
<g transform="translate(0.000000,1280.000000) scale(0.100000,-0.100000)"
fill="#000000" stroke="none">
<path d="M3405 12786 c-77 -29 -145 -125 -145 -206 0 -71 21 -103 139 -221
215 -212 294 -373 293 -594 -1 -266 -98 -480 -396 -879 -173 -231 -230 -321
-312 -491 -110 -232 -154 -408 -154 -621 0 -336 130 -620 407 -890 57 -56 120
-110 141 -120 174 -83 360 69 307 252 -13 46 -30 67 -134 171 -69 68 -140 150
-168 194 -122 187 -151 389 -89 611 58 206 143 362 345 627 165 219 250 350
326 506 107 219 151 380 162 586 13 274 -67 525 -244 760 -81 107 -253 277
-308 303 -50 24 -123 29 -170 12z"/>
<path d="M6017 12786 c-112 -41 -168 -153 -136 -271 8 -31 35 -64 115 -143
228 -226 306 -382 306 -613 -1 -263 -112 -499 -434 -922 -223 -292 -368 -591
-414 -857 -24 -142 -15 -372 20 -500 31 -109 95 -250 156 -341 111 -165 314
-368 388 -389 90 -24 172 -1 230 65 42 47 53 77 54 140 1 76 -21 112 -127 215
-112 109 -169 180 -218 271 -179 329 -79 710 318 1214 591 751 617 1433 75
1976 -64 64 -135 126 -159 138 -55 28 -125 35 -174 17z"/>
<path d="M8629 12787 c-60 -23 -96 -54 -123 -109 -30 -60 -34 -121 -10 -176 8
-21 66 -89 133 -157 199 -202 270 -339 279 -541 7 -176 -24 -306 -120 -499
-65 -129 -135 -236 -269 -411 -330 -431 -470 -764 -470 -1118 0 -339 124 -613
401 -887 60 -59 127 -115 152 -127 143 -70 308 33 308 193 0 78 -22 114 -135
225 -121 119 -178 193 -226 295 -153 327 -48 693 342 1190 495 631 590 1227
273 1717 -95 149 -281 345 -367 389 -50 26 -123 33 -168 16z"/>
<path d="M5600 8073 c-113 -1 -808 -7 -1545 -12 -737 -6 -1596 -14 -1909 -17
l-569 -7 7 -121 c28 -528 177 -1477 366 -2331 437 -1970 1013 -3495 1551
-4104 l75 -86 2643 -3 2644 -2 34 36 c145 154 299 498 458 1019 36 121 73 243
82 270 l15 50 182 59 c376 120 683 244 1011 406 1101 544 1784 1274 1947 2081
32 160 32 456 0 602 -149 675 -692 1148 -1512 1316 -133 28 -135 29 -152 62
-13 25 -18 57 -18 119 0 81 8 125 70 390 22 98 30 244 14 259 -8 7 -4834 20
-5394 14z m5629 -1478 c286 -47 488 -182 607 -407 176 -335 145 -795 -83
-1253 -100 -200 -203 -344 -368 -514 -311 -320 -676 -513 -1115 -586 -97 -17
-456 -33 -484 -22 -12 5 -14 12 -6 29 26 63 149 400 192 528 27 80 114 363
194 630 326 1091 420 1383 485 1512 16 33 35 61 42 63 7 3 59 11 117 19 142
19 305 19 419 1z"/>
<path d="M31 1239 c96 -191 271 -387 493 -554 353 -265 898 -510 1435 -646
l154 -39 4271 0 4272 0 124 30 c353 86 673 200 960 341 477 234 783 494 962
817 22 40 38 75 36 77 -2 3 -335 0 -739 -5 -403 -5 -1141 -14 -1639 -20 -498
-5 -1305 -15 -1795 -21 -1189 -16 -2310 -16 -3155 -1 -774 14 -1600 27 -2640
42 -382 6 -965 15 -1295 20 -330 5 -797 12 -1038 16 l-439 7 33 -64z"/>
</g>
</svg>
