<?xml version="1.0" standalone="no"?>
<!DOCTYPE svg PUBLIC "-//W3C//DTD SVG 20010904//EN"
 "http://www.w3.org/TR/2001/REC-SVG-20010904/DTD/svg10.dtd">
<svg version="1.0" xmlns="http://www.w3.org/2000/svg"
 width="1280.000000pt" height="875.000000pt" viewBox="0 0 1280.000000 875.000000"
 preserveAspectRatio="xMidYMid meet">
<metadata>
Created by potrace 1.15, written by Peter Selinger 2001-2017
</metadata>
<g transform="translate(0.000000,875.000000) scale(0.100000,-0.100000)"
fill="#000000" stroke="none">
<path d="M5950 8744 c-1674 -65 -3126 -391 -4225 -950 -444 -225 -749 -439
-1036 -724 -268 -267 -417 -492 -508 -765 -47 -142 -62 -229 -68 -393 l-6
-152 6279 2 6279 3 -1 130 c-2 209 -42 378 -138 580 -104 219 -224 383 -426
585 -567 569 -1475 1020 -2671 1329 -672 173 -1389 281 -2229 337 -209 13
-1050 26 -1250 18z"/>
<path d="M7020 5500 c-429 -17 -710 -77 -764 -163 -47 -75 216 -156 603 -187
180 -14 4347 -14 4527 0 607 47 805 194 389 288 -294 66 -224 65 -2510 67
-1133 1 -2143 -1 -2245 -5z"/>
<path d="M1125 5469 c-252 -21 -484 -74 -545 -125 -108 -92 89 -171 535 -216
190 -19 4298 -19 4495 0 320 31 513 82 556 146 34 53 -37 100 -209 141 -264
62 -127 59 -2532 61 -1214 1 -2239 -2 -2300 -7z"/>
<path d="M895 4807 c-67 -22 -102 -45 -170 -108 -140 -132 -246 -366 -302
-669 -25 -136 -25 -544 0 -680 51 -279 144 -499 269 -636 180 -196 391 -203
569 -17 36 37 74 81 85 96 l20 28 38 -56 c49 -70 126 -141 197 -180 49 -27 62
-30 149 -30 85 0 101 3 149 29 30 15 78 51 108 78 l53 51 68 -65 c100 -94 144
-113 262 -113 85 0 101 3 149 29 62 32 150 111 193 174 16 23 32 42 36 42 4 0
19 -19 34 -43 42 -66 146 -160 213 -193 51 -25 72 -29 140 -29 68 0 89 4 138
29 32 15 84 52 115 81 l57 53 55 -51 c76 -70 161 -108 242 -109 86 0 135 15
208 64 55 36 170 158 170 180 0 20 19 3 60 -53 59 -82 121 -135 200 -173 55
-26 77 -31 140 -31 63 0 85 5 140 31 36 17 89 52 118 79 l53 47 64 -61 c89
-86 157 -116 260 -116 66 0 90 5 138 27 74 35 137 87 190 157 23 31 47 56 52
56 6 0 28 -24 51 -55 55 -74 121 -133 186 -166 70 -36 182 -44 257 -19 63 21
157 90 202 149 l34 44 62 -64 c144 -145 311 -171 465 -72 50 32 136 119 165
169 9 16 20 29 23 29 3 0 14 -14 24 -31 36 -61 145 -166 208 -200 58 -32 70
-34 153 -34 79 0 97 4 147 28 32 16 82 51 112 78 l54 49 60 -59 c82 -80 156
-115 252 -119 58 -3 88 1 130 17 74 28 162 99 218 176 l46 64 35 -52 c52 -77
135 -153 209 -189 56 -28 76 -33 141 -33 64 0 86 5 141 31 36 17 90 54 121 82
l56 51 44 -45 c24 -25 76 -61 116 -81 69 -34 76 -35 155 -31 65 3 95 10 138
32 58 29 167 128 201 184 12 17 24 32 28 32 4 0 15 -14 24 -30 30 -49 124
-146 175 -178 147 -94 319 -72 446 57 l49 50 57 -58 c36 -37 83 -71 126 -92
61 -30 78 -34 149 -34 68 0 89 4 137 28 67 33 151 107 204 178 l36 50 33 -48
c44 -66 151 -164 211 -193 41 -21 64 -25 144 -25 85 0 101 3 149 29 273 143
461 645 438 1171 -22 494 -195 889 -442 1011 -62 31 -82 36 -141 36 -126 0
-241 -66 -332 -189 -26 -35 -49 -63 -52 -63 -3 0 -20 23 -39 50 -47 70 -140
153 -208 187 -49 24 -70 28 -138 28 -70 0 -89 -4 -146 -32 -36 -18 -87 -54
-115 -80 l-49 -48 -55 55 c-30 30 -84 71 -120 90 -60 32 -72 35 -150 35 -72 0
-94 -4 -143 -27 -63 -30 -162 -118 -209 -186 l-30 -44 -28 42 c-134 203 -326
281 -495 201 -36 -16 -90 -53 -120 -82 l-55 -51 -55 50 c-30 28 -81 63 -113
79 -49 24 -69 28 -142 28 -72 0 -93 -4 -140 -27 -70 -35 -137 -93 -193 -167
l-44 -59 -44 60 c-175 241 -405 279 -601 99 l-55 -50 -59 60 c-84 85 -164 123
-264 123 -59 0 -87 -6 -130 -26 -76 -35 -149 -95 -201 -167 -24 -33 -46 -60
-49 -60 -3 -1 -14 13 -24 30 -40 68 -147 168 -214 201 -60 30 -76 33 -152 33
-77 0 -91 -4 -149 -33 -39 -21 -89 -60 -130 -101 l-65 -68 -63 63 c-198 198
-430 163 -623 -94 l-25 -34 -59 75 c-64 82 -127 135 -202 169 -75 35 -190 32
-267 -6 -32 -15 -83 -51 -113 -80 l-55 -51 -64 62 c-35 33 -90 74 -122 90 -50
24 -70 28 -143 28 -72 0 -93 -4 -140 -27 -71 -35 -142 -97 -196 -170 l-42 -57
-52 70 c-84 113 -182 181 -282 197 -112 17 -213 -19 -314 -111 l-53 -48 -48
46 c-26 25 -77 60 -113 78 -57 28 -74 32 -150 32 -78 0 -90 -3 -150 -35 -68
-37 -153 -115 -196 -180 l-26 -39 -42 57 c-56 75 -143 154 -202 181 -135 64
-283 35 -403 -79 l-50 -49 -58 57 c-137 133 -280 161 -430 85 -50 -25 -153
-122 -199 -187 l-21 -29 -33 47 c-52 77 -137 153 -208 188 -75 37 -169 47
-237 25z"/>
<path d="M671 2165 c-307 -56 -554 -283 -644 -593 -21 -74 -22 -92 -22 -482 0
-390 1 -408 22 -482 83 -287 294 -498 581 -581 l77 -22 5715 0 5715 0 77 22
c287 83 498 294 581 581 21 74 22 92 22 482 0 390 -1 408 -22 482 -48 164
-139 306 -265 415 -71 61 -230 143 -328 170 -62 17 -350 18 -5750 19 -4734 2
-5697 0 -5759 -11z"/>
</g>
</svg>
